# Blender v2.93.0 OBJ File: 'foundation.blend'
# www.blender.org
mtllib foundation.mtl
o Cube
v 10.000000 0.100000 -10.000000
v 10.000000 -0.100000 -10.000000
v 10.000000 0.100000 10.000000
v 10.000000 -0.100000 10.000000
v -10.000000 0.100000 -10.000000
v -10.000000 -0.100000 -10.000000
v -10.000000 0.100000 10.000000
v -10.000000 -0.100000 10.000000
v 7.990487 -0.100000 -10.000000
v 7.990487 0.100000 10.000000
v 7.990487 -0.100000 10.000000
v 7.990487 0.100000 -10.000000
v -7.967759 -0.100000 -10.000000
v -7.967759 0.100000 10.000000
v -7.967759 -0.100000 10.000000
v -7.967759 0.100000 -10.000000
v -10.000000 -0.100000 -8.013323
v 10.000000 0.100000 -8.013323
v -10.000000 0.100000 -8.013323
v 10.000000 -0.100000 -8.013323
v 7.990487 -0.100000 -8.013323
v 7.990487 0.100000 -8.013323
v -7.967759 -0.100000 -8.013323
v -7.967759 0.100000 -8.013323
v -10.000000 -0.100000 7.990219
v 10.000000 0.100000 7.990219
v 7.990487 -0.100000 7.990219
v 7.990487 0.100000 7.990219
v -7.967759 -0.100000 7.990219
v -7.967759 0.100000 7.990219
v -10.000000 0.100000 7.990219
v 10.000000 -0.100000 7.990219
v -7.967759 2.009904 10.000000
v -10.000000 2.009904 10.000000
v 10.000000 2.009904 7.990219
v 10.000000 2.009904 10.000000
v -10.000000 2.009904 -8.013323
v -10.000000 2.009904 -10.000000
v 7.990487 2.009904 -10.000000
v 10.000000 2.009904 -10.000000
v 7.990487 2.009904 10.000000
v 7.990487 2.009904 7.990219
v -7.967759 2.009904 -10.000000
v -7.967759 2.009904 7.990219
v 10.000000 2.009904 -8.013323
v 7.990487 2.009904 -8.013323
v -7.967759 2.009904 -8.013323
v -10.000000 2.009904 7.990219
v 8.995243 -0.100000 10.000000
v 8.995243 0.100000 -10.000000
v 8.995243 -0.100000 -10.000000
v 8.995243 0.100000 10.000000
v 8.995243 0.100000 -8.013323
v 8.995243 -0.100000 -8.013323
v 8.995243 0.100000 7.990219
v 8.995243 -0.100000 7.990219
v 8.995243 2.009904 -10.000000
v 8.995243 2.009904 10.000000
v 8.995243 2.009904 -8.013323
v 8.995243 2.009904 7.990219
v -8.983879 -0.100000 -10.000000
v -8.983879 0.100000 10.000000
v -8.983879 -0.100000 10.000000
v -8.983879 0.100000 -10.000000
v -8.983879 -0.100000 -8.013323
v -8.983879 0.100000 -8.013323
v -8.983879 -0.100000 7.990219
v -8.983879 0.100000 7.990219
v -8.983879 2.009904 10.000000
v -8.983879 2.009904 -10.000000
v -8.983879 2.009904 -8.013323
v -8.983879 2.009904 7.990219
v -10.000000 0.100000 -9.006661
v 10.000000 -0.100000 -9.006661
v -10.000000 -0.100000 -9.006661
v 10.000000 0.100000 -9.006661
v 7.990487 -0.100000 -9.006661
v 7.990487 0.100000 -9.006661
v -7.967759 -0.100000 -9.006661
v -7.967759 0.100000 -9.006661
v -10.000000 2.009904 -9.006661
v 10.000000 2.009904 -9.006661
v 7.990487 2.009904 -9.006661
v -7.967759 2.009904 -9.006661
v 8.995243 2.009904 -9.006661
v 8.995243 -0.100000 -9.006661
v -8.983879 2.009904 -9.006661
v -8.983879 -0.100000 -9.006661
v -10.000000 -0.100000 8.995110
v 10.000000 0.100000 8.995110
v 7.990487 -0.100000 8.995110
v 7.990487 0.100000 8.995110
v -7.967759 -0.100000 8.995110
v -7.967759 0.100000 8.995110
v -10.000000 0.100000 8.995110
v 10.000000 -0.100000 8.995110
v 10.000000 2.009904 8.995110
v 7.990487 2.009904 8.995110
v -7.967759 2.009904 8.995110
v -10.000000 2.009904 8.995110
v 8.995243 2.009904 8.995110
v 8.995243 -0.100000 8.995110
v -8.983879 2.009904 8.995110
v -8.983879 -0.100000 8.995110
v -7.967759 0.946589 -10.000000
v 7.990487 0.946589 -10.000000
v 7.990487 0.946589 8.995110
v 7.990487 0.946589 10.000000
v -7.967759 0.946589 10.000000
v -7.967759 0.946589 8.995110
v -10.000000 0.946589 7.990219
v -10.000000 0.946589 -8.013323
v 8.995243 0.946589 -8.013323
v 10.000000 0.946589 -8.013323
v 10.000000 0.946589 7.990219
v 8.995243 0.946589 7.990219
v -8.983879 0.946589 -8.013323
v -8.983879 0.946589 7.990219
v 7.990487 0.946589 -9.006661
v -7.967759 0.946589 -9.006661
vt 0.625000 0.987298
vt 0.625000 0.974597
vt 0.625000 0.974597
vt 0.625000 0.987298
vt 0.375000 0.987298
vt 0.625000 1.000000
vt 0.375000 1.000000
vt 0.375000 0.237583
vt 0.625000 0.237583
vt 0.625000 0.250000
vt 0.375000 0.250000
vt 0.362441 0.737439
vt 0.375000 0.737439
vt 0.375000 0.750000
vt 0.362441 0.750000
vt 0.625000 0.737439
vt 0.625000 0.750000
vt 0.375000 0.487441
vt 0.625000 0.487441
vt 0.625000 0.500000
vt 0.375000 0.500000
vt 0.375000 0.275403
vt 0.625000 0.275403
vt 0.625000 0.474881
vt 0.375000 0.474881
vt 0.150403 0.737439
vt 0.349881 0.737439
vt 0.349881 0.750000
vt 0.150403 0.750000
vt 0.375000 0.762559
vt 0.625000 0.762559
vt 0.625000 0.775119
vt 0.375000 0.775119
vt 0.625000 0.750000
vt 0.625000 0.762559
vt 0.137702 0.737439
vt 0.137702 0.750000
vt 0.375000 0.262702
vt 0.625000 0.262702
vt 0.375000 0.974597
vt 0.650119 0.737439
vt 0.849597 0.737439
vt 0.849597 0.737439
vt 0.650119 0.737439
vt 0.650119 0.512417
vt 0.849597 0.512417
vt 0.849597 0.524833
vt 0.650119 0.524833
vt 0.137702 0.512417
vt 0.150403 0.512417
vt 0.150403 0.524833
vt 0.137702 0.524833
vt 0.625000 0.012561
vt 0.625000 0.000000
vt 0.625000 0.000000
vt 0.625000 0.012561
vt 0.349881 0.512417
vt 0.349881 0.524833
vt 0.375000 0.512417
vt 0.625000 0.512417
vt 0.625000 0.524833
vt 0.375000 0.524833
vt 0.362441 0.512417
vt 0.362441 0.524833
vt 0.375000 0.025122
vt 0.625000 0.025122
vt 0.625000 0.225167
vt 0.375000 0.225167
vt 0.849597 0.500000
vt 0.849597 0.500000
vt 0.849597 0.512417
vt 0.375000 0.012561
vt 0.849597 0.724878
vt 0.650119 0.724878
vt 0.150403 0.724878
vt 0.137702 0.724878
vt 0.637559 0.524833
vt 0.637559 0.724878
vt 0.349881 0.724878
vt 0.625000 0.724878
vt 0.375000 0.724878
vt 0.362441 0.724878
vt 0.637559 0.724878
vt 0.637559 0.524833
vt 0.862298 0.737439
vt 0.875000 0.737439
vt 0.875000 0.750000
vt 0.862298 0.750000
vt 0.637559 0.737439
vt 0.650119 0.737439
vt 0.650119 0.750000
vt 0.637559 0.750000
vt 0.637559 0.512417
vt 0.650119 0.512417
vt 0.650119 0.524833
vt 0.637559 0.524833
vt 0.862298 0.512417
vt 0.875000 0.512417
vt 0.875000 0.524833
vt 0.862298 0.524833
vt 0.862298 0.524833
vt 0.849597 0.524833
vt 0.625000 0.500000
vt 0.625000 0.512417
vt 0.625000 0.724878
vt 0.625000 0.737439
vt 0.862298 0.724878
vt 0.875000 0.724878
vt 0.875000 0.724878
vt 0.862298 0.724878
vt 0.625000 0.250000
vt 0.625000 0.262702
vt 0.625000 0.524833
vt 0.625000 0.225167
vt 0.625000 0.237583
vt 0.625000 0.474881
vt 0.625000 0.487441
vt 0.650119 0.724878
vt 0.637559 0.724878
vt 0.650119 0.750000
vt 0.849597 0.724878
vt 0.849597 0.737439
vt 0.849597 0.512417
vt 0.849597 0.500000
vt 0.625000 0.775119
vt 0.625000 0.275403
vt 0.875000 0.524833
vt 0.849597 0.750000
vt 0.125000 0.524833
vt 0.125000 0.724878
vt 0.125000 0.512417
vt 0.125000 0.737439
vt 0.125000 0.750000
vt 0.625000 1.000000
vt 0.125000 0.500000
vt 0.137702 0.500000
vt 0.862298 0.500000
vt 0.349881 0.500000
vt 0.362441 0.500000
vt 0.637559 0.500000
vt 0.650119 0.500000
vt 0.650119 0.500000
vt 0.875000 0.500000
vt 0.150403 0.500000
vt 0.625000 0.775119
vt 0.625000 0.974597
vt 0.849597 0.750000
vt 0.375000 0.000000
vt 0.625000 0.025122
vt 0.000000 0.000000
vt 0.000000 0.000000
vt 0.000000 0.000000
vt 0.000000 0.000000
vt 0.000000 0.000000
vt 0.000000 0.000000
vt 0.000000 0.000000
vt 0.000000 0.000000
vt 0.849597 0.750000
vt 0.650119 0.750000
vt 0.862298 0.524833
vt 0.875000 0.524833
vt 0.875000 0.724878
vt 0.862298 0.724878
vt 0.625000 0.524833
vt 0.625000 0.724878
vt 0.650119 0.500000
vt 0.650119 0.512417
vt 0.625000 0.275403
vt 0.625000 0.474881
vt 0.625000 0.025122
vt 0.625000 0.225167
vn 0.0000 0.0000 1.0000
vn -1.0000 0.0000 0.0000
vn 0.0000 -1.0000 0.0000
vn 1.0000 0.0000 0.0000
vn 0.0000 0.0000 -1.0000
vn 0.0000 1.0000 0.0000
usemtl Material
s off
f 62/1/1 14/2/1 33/3/1 69/4/1
f 63/5/1 62/1/1 7/6/1 8/7/1
f 75/8/2 73/9/2 5/10/2 6/11/2
f 102/12/3 96/13/3 4/14/3 49/15/3
f 96/13/4 90/16/4 3/17/4 4/14/4
f 51/18/5 50/19/5 1/20/5 2/21/5
f 13/22/5 16/23/5 12/24/5 9/25/5
f 93/26/3 91/27/3 11/28/3 15/29/3
f 49/30/1 52/31/1 10/32/1 11/33/1
f 52/31/1 3/17/1 36/34/1 58/35/1
f 104/36/3 93/26/3 15/29/3 63/37/3
f 61/38/5 64/39/5 16/23/5 13/22/5
f 11/33/1 10/32/1 14/2/1 15/40/1
f 92/41/5 94/42/5 110/43/5 107/44/5
f 78/45/6 80/46/6 24/47/6 22/48/6
f 88/49/3 79/50/3 23/51/3 65/52/3
f 95/53/2 7/54/2 34/55/2 100/56/2
f 79/50/3 77/57/3 21/58/3 23/51/3
f 74/59/4 76/60/4 18/61/4 20/62/4
f 86/63/3 74/59/3 20/62/3 54/64/3
f 25/65/2 31/66/2 19/67/2 17/68/2
f 80/46/4 16/69/4 43/70/4 84/71/4
f 89/72/2 95/53/2 31/66/2 25/65/2
f 22/48/6 24/47/6 30/73/6 28/74/6
f 65/52/3 23/51/3 29/75/3 67/76/3
f 53/77/6 22/48/6 28/74/6 55/78/6
f 23/51/3 21/58/3 27/79/3 29/75/3
f 20/62/4 18/61/4 26/80/4 32/81/4
f 54/64/3 20/62/3 32/81/3 56/82/3
f 53/77/2 55/78/2 116/83/2 113/84/2
f 103/85/6 100/86/6 34/87/6 69/88/6
f 101/89/6 98/90/6 41/91/6 58/92/6
f 85/93/6 83/94/6 46/95/6 59/96/6
f 87/97/6 81/98/6 37/99/6 71/100/6
f 66/101/1 24/47/1 47/102/1 71/100/1
f 76/60/4 1/20/4 40/103/4 82/104/4
f 90/16/4 26/80/4 35/105/4 97/106/4
f 68/107/5 31/108/5 48/109/5 72/110/5
f 64/39/5 5/10/5 38/111/5 70/112/5
f 53/77/1 18/61/1 45/113/1 59/96/1
f 73/9/2 19/67/2 37/114/2 81/115/2
f 50/19/5 12/24/5 39/116/5 57/117/5
f 55/78/5 28/74/5 42/118/5 60/119/5
f 78/45/2 22/48/2 46/95/2 83/94/2
f 92/41/2 10/120/2 41/91/2 98/90/2
f 94/42/4 30/73/4 44/121/4 99/122/4
f 26/80/5 55/78/5 60/119/5 35/105/5
f 1/20/5 50/19/5 57/117/5 40/103/5
f 22/48/1 53/77/1 59/96/1 46/95/1
f 82/104/6 85/93/6 59/96/6 45/113/6
f 97/106/6 101/89/6 58/92/6 36/34/6
f 21/58/3 54/64/3 56/82/3 27/79/3
f 16/69/2 80/46/2 120/123/2 105/124/2
f 77/57/3 86/63/3 54/64/3 21/58/3
f 10/32/1 52/31/1 58/35/1 41/125/1
f 4/14/1 3/17/1 52/31/1 49/30/1
f 9/25/5 12/24/5 50/19/5 51/18/5
f 91/27/3 102/12/3 49/15/3 11/28/3
f 16/23/5 64/39/5 70/112/5 43/126/5
f 30/73/5 68/107/5 72/110/5 44/121/5
f 19/127/1 66/101/1 71/100/1 37/99/1
f 84/71/6 87/97/6 71/100/6 47/102/6
f 99/122/6 103/85/6 69/88/6 33/128/6
f 24/47/6 66/101/6 68/107/6 30/73/6
f 17/129/3 65/52/3 67/76/3 25/130/3
f 75/131/3 88/49/3 65/52/3 17/129/3
f 6/11/5 5/10/5 64/39/5 61/38/5
f 89/132/3 104/36/3 63/37/3 8/133/3
f 15/40/1 14/2/1 62/1/1 63/5/1
f 7/6/1 62/1/1 69/4/1 34/134/1
f 6/135/3 61/136/3 88/49/3 75/131/3
f 43/70/6 70/137/6 87/97/6 84/71/6
f 9/138/3 51/139/3 86/63/3 77/57/3
f 40/103/6 57/140/6 85/93/6 82/104/6
f 12/141/2 78/45/2 83/94/2 39/142/2
f 5/10/2 73/9/2 81/115/2 38/111/2
f 18/61/4 76/60/4 82/104/4 45/113/4
f 70/137/6 38/143/6 81/98/6 87/97/6
f 57/140/6 39/142/6 83/94/6 85/93/6
f 24/47/4 80/46/4 84/71/4 47/102/4
f 51/139/3 2/21/3 74/59/3 86/63/3
f 2/21/4 1/20/4 76/60/4 74/59/4
f 13/144/3 9/138/3 77/57/3 79/50/3
f 61/136/3 13/144/3 79/50/3 88/49/3
f 14/2/1 10/32/1 108/145/1 109/146/1
f 17/68/2 19/67/2 73/9/2 75/8/2
f 25/130/3 67/76/3 104/36/3 89/132/3
f 44/121/6 72/110/6 103/85/6 99/122/6
f 27/79/3 56/82/3 102/12/3 91/27/3
f 35/105/6 60/119/6 101/89/6 97/106/6
f 14/147/4 94/42/4 99/122/4 33/128/4
f 28/74/2 92/41/2 98/90/2 42/118/2
f 3/17/4 90/16/4 97/106/4 36/34/4
f 60/119/6 42/118/6 98/90/6 101/89/6
f 72/110/6 48/109/6 100/86/6 103/85/6
f 8/148/2 7/54/2 95/53/2 89/72/2
f 31/66/2 95/53/2 100/56/2 48/149/2
f 28/74/6 30/73/6 94/42/6 92/41/6
f 67/76/3 29/75/3 93/26/3 104/36/3
f 29/75/3 27/79/3 91/27/3 93/26/3
f 32/81/4 26/80/4 90/16/4 96/13/4
f 56/82/3 32/81/3 96/13/3 102/12/3
f 35/150/3 97/151/3 36/152/3 58/153/3 41/154/3 98/155/3 42/156/3 60/157/3
f 107/44/6 110/43/6 109/158/6 108/159/6
f 117/160/6 112/161/6 111/162/6 118/163/6
f 114/164/6 113/84/6 116/83/6 115/165/6
f 106/166/6 105/124/6 120/123/6 119/167/6
f 80/46/1 78/45/1 119/167/1 120/123/1
f 68/107/4 66/101/4 117/160/4 118/163/4
f 12/24/5 16/23/5 105/168/5 106/169/5
f 19/67/2 31/66/2 111/170/2 112/171/2
f 26/80/4 18/61/4 114/164/4 115/165/4
f 18/61/5 53/77/5 113/84/5 114/164/5
f 66/101/5 19/127/5 112/161/5 117/160/5
f 55/78/1 26/80/1 115/165/1 116/83/1
f 10/120/4 92/41/4 107/44/4 108/159/4
f 78/45/4 12/141/4 106/166/4 119/167/4
f 31/108/1 68/107/1 118/163/1 111/162/1
f 94/42/2 14/147/2 109/158/2 110/43/2
