# Blender v2.93.0 OBJ File: 'cave.blend'
# www.blender.org
mtllib cave.mtl
o Torus
v 0.351809 0.000012 -2.244905
v 0.130854 -0.000017 -1.334304
v -0.394585 -0.000000 -1.594696
v -3.640511 -0.000000 -1.822509
v -2.483188 -0.000000 -2.050323
v 0.108018 2.124183 -2.183839
v 0.453482 2.175140 -1.846576
v 0.335199 1.803456 -1.460956
v -0.116471 2.014751 -1.279442
v -0.391788 2.286934 -1.418798
v -4.670636 0.011069 -1.806917
v -4.670636 0.244884 -1.760409
v -4.670636 0.470628 -1.683779
v 0.260952 3.106855 -1.553934
v 0.328295 2.645018 -0.958368
v -4.670636 0.684438 -1.578340
v -2.908051 2.744059 -1.544537
v -4.670636 0.882657 -1.445894
v -0.122700 2.695024 -0.623849
v -4.670636 1.061893 -1.288708
v -0.008270 3.482608 -1.009480
v 0.452263 3.435916 -0.027737
v -4.670636 1.219077 -1.109473
v -0.396459 2.977430 -0.498926
v -4.670636 1.351523 -0.911255
v -2.820879 3.452122 -0.434148
v -4.670636 1.456963 -0.697444
v 0.144949 3.715353 -0.136877
v 0.328639 2.958944 0.186849
v -4.670636 1.533593 -0.471700
v -0.123333 2.820181 0.178718
v -4.670636 1.580101 -0.237885
v -4.670636 1.595693 -0.000000
v -4.670636 1.580101 0.237885
v 0.142862 3.606794 0.731451
v -4.670636 1.533593 0.471700
v 0.348219 3.067641 1.425760
v -0.376614 2.963471 0.529211
v -4.670636 1.456963 0.697443
v 0.014366 3.010085 1.661221
v 0.117232 2.442614 0.967979
v -4.670636 1.351523 0.911254
v 0.453243 2.200110 1.838480
v 0.388304 2.276992 1.416281
v -4.670636 1.219077 1.109473
v -0.382323 2.125847 1.440084
v -4.670636 1.061893 1.288708
v -4.670636 0.882658 1.445893
v 0.153324 2.043408 2.199610
v 0.124040 1.845628 1.324861
v -4.670636 0.684438 1.578340
v -4.670636 0.470628 1.683779
v -2.853418 2.317834 1.864945
v -4.670636 0.244884 1.760409
v -4.670636 0.011070 1.806917
v 0.242518 0.000000 2.259811
v 0.357692 0.000019 1.464766
v -0.322726 0.000007 1.508323
v -3.428066 0.004665 1.872236
v -4.227324 2.169327 0.867533
v -2.965593 3.270332 0.835968
v -2.910006 1.930858 -1.961072
v -4.216941 2.306361 -0.499540
v -3.403872 0.349676 -1.869090
v -3.114541 0.349676 -1.926044
v -2.825211 0.349676 -1.982997
v -4.269785 1.021214 1.800837
v -4.168336 1.397161 -1.760329
vt 0.750000 0.308706
vt 0.793786 0.320898
vt 0.750000 0.333333
vt 0.835302 0.166667
vt 0.791667 0.250000
vt 0.770833 0.250000
vt 0.812500 0.250000
vt 0.889413 0.879769
vt 0.807920 1.000000
vt 0.788434 0.871179
vt 0.833333 0.250000
vt 0.854167 0.250000
vt 0.875000 0.250000
vt 0.895833 0.250000
vt 0.949885 0.166667
vt 0.937500 0.250000
vt 0.916667 0.250000
vt 0.925607 0.492790
vt 0.985638 0.538140
vt 0.880349 0.580034
vt 0.982792 0.679395
vt 0.985112 0.877393
vt 0.958333 0.250000
vt 0.927026 1.000000
vt 0.979167 0.250000
vt 0.994491 0.044073
vt 1.000000 0.166667
vt 0.053400 0.538414
vt 0.023763 0.671254
vt 0.006152 0.538140
vt 0.027839 0.877393
vt 0.119425 0.961306
vt 0.029587 1.000000
vt 0.123622 0.000000
vt 0.054480 0.162300
vt 0.023392 0.044073
vt 0.165256 0.833333
vt 0.128029 0.490135
vt 0.204329 0.544008
vt 0.112671 0.614427
vt 0.184083 0.692511
vt 0.205242 0.954127
vt 0.212861 0.000000
vt 0.180400 0.153606
vt 0.250000 0.581777
vt 0.250000 0.638944
vt 0.178426 0.319864
vt 0.250000 0.264940
vt 0.065152 0.314782
vt 0.009928 0.333333
vt 0.750000 0.486511
vt 0.750000 0.614094
vt 0.814333 0.697460
vt 0.961131 0.324574
vt 0.862835 0.318186
vt 0.202761 0.271991
vt 0.229167 0.250000
vt 0.074743 0.267039
vt 1.000000 0.250000
vt 0.957919 0.267039
vt 0.827244 0.267676
vt 0.750000 0.267039
vt 0.750000 0.287873
vt 0.250000 0.127134
vt 0.750000 0.250000
vt 0.750000 0.166667
vt 0.000000 0.000000
vt 0.000000 0.000000
vt 0.000000 0.000000
vt 0.000000 0.000000
vt 0.798915 0.520776
vt 0.815483 0.042636
vt 0.928583 0.042461
vt 1.000000 1.000000
vt 0.020833 0.250000
vt 0.000000 0.250000
vt 0.041667 0.250000
vt 0.062500 0.250000
vt 0.083333 0.250000
vt 0.104167 0.250000
vt 0.125000 0.250000
vt 0.145833 0.250000
vt 0.166667 0.250000
vt 0.187500 0.250000
vt 0.208333 0.250000
vt 0.000000 0.267039
vt 1.000000 0.308706
vt 0.000000 0.000000
vt 0.000000 0.000000
vt 0.000000 0.000000
vt 0.000000 0.000000
vt 0.000000 0.000000
vt 0.000000 0.000000
vt 0.000000 0.000000
vt 0.000000 0.000000
vt 0.000000 0.000000
vt 0.000000 0.000000
vt 0.000000 0.000000
vt 0.000000 0.000000
vt 0.000000 0.000000
vt 0.000000 0.000000
vt 0.000000 0.000000
vt 0.000000 0.000000
vt 0.000000 0.000000
vt 0.000000 0.000000
vt 0.000000 0.000000
vt 0.000000 0.000000
vt 0.000000 0.000000
vt 0.000000 0.000000
vt 0.000000 0.000000
vn -0.1898 0.0034 -0.9818
vn 0.0148 -0.1951 0.9807
vn 0.0776 -0.3205 0.9441
vn 0.1050 -0.5093 0.8542
vn 0.1311 -0.4385 0.8891
vn 0.1744 -0.5471 0.8187
vn 0.2070 -0.6451 0.7355
vn 0.2290 -0.7319 0.6418
vn 0.2860 -0.8594 0.4238
vn 0.5089 0.8053 -0.3042
vn 0.9725 -0.2245 0.0613
vn 0.3064 -0.9014 0.3060
vn 0.0888 -0.9606 0.2633
vn 0.3156 -0.9307 0.1851
vn -0.4948 -0.8690 -0.0022
vn 0.6508 0.7532 0.0957
vn 0.2653 -0.8358 -0.4807
vn -0.6451 -0.7470 -0.1607
vn 0.2779 -0.8343 -0.4762
vn 0.4474 0.4834 0.7525
vn 0.6130 0.3987 0.6821
vn 0.7462 -0.3353 -0.5751
vn -0.4334 -0.4660 -0.7713
vn 0.7570 0.0522 0.6513
vn 0.9878 -0.0166 -0.1550
vn 0.3626 -0.0247 -0.9316
vn -0.1079 0.0299 0.9937
vn -0.1257 0.7212 0.6813
vn -0.1024 0.9863 0.1295
vn -0.1000 0.9873 0.1232
vn 0.9695 -0.0901 0.2279
vn -0.1170 0.8415 -0.5274
vn -0.0523 0.0268 0.9983
vn -0.0622 0.0186 0.9979
vn -0.5105 0.6026 0.6134
vn -0.8531 0.5206 -0.0341
vn -0.8596 0.5011 -0.0997
vn -0.8527 0.4946 -0.1679
vn -0.8297 0.5007 -0.2469
vn -0.7462 0.5005 -0.4389
vn -0.7535 0.4335 -0.4943
vn -0.7367 0.3757 -0.5622
vn -0.6897 0.3203 -0.6494
vn -0.5934 0.2587 -0.7622
vn -0.4084 0.1781 -0.8953
vn -0.1930 -0.0390 -0.9804
vn -0.0014 -1.0000 0.0010
vn 0.0000 -1.0000 -0.0000
vn 0.0689 -0.1774 -0.9817
vn -0.0734 -0.9249 -0.3731
vn -0.1981 -0.3687 0.9082
vn 0.1931 -0.0000 0.9812
vn 0.0000 1.0000 0.0000
vn 0.6875 0.0996 -0.7193
vn -0.4654 -0.0738 0.8820
vn 0.3815 0.0217 0.9241
vn -0.0496 -0.1049 0.9932
vn 0.2392 -0.7815 0.5762
vn 0.6280 0.3483 -0.6959
vn 0.9749 -0.1083 0.1947
vn 0.4171 -0.6287 0.6563
vn 0.9522 0.2513 -0.1735
vn 0.6931 -0.5922 0.4110
vn -0.7251 -0.4813 0.4925
vn -0.4841 -0.7010 0.5237
vn 0.3072 -0.9516 -0.0036
vn 0.6982 0.6767 -0.2334
vn -0.6885 -0.7166 0.1112
vn 0.2878 -0.9462 0.1478
vn 0.9216 -0.3216 -0.2173
vn 0.3099 -0.9487 -0.0622
vn 0.3127 -0.9316 -0.1853
vn 0.8018 0.5630 0.2001
vn 0.3045 -0.9020 -0.3062
vn 0.2850 -0.8597 -0.4239
vn 0.2482 0.7993 0.5473
vn 0.9784 0.1726 0.1138
vn 0.2039 -0.7237 -0.6593
vn 0.2541 -0.8042 -0.5373
vn -0.1469 -0.0626 -0.9872
vn -0.1713 -0.7247 -0.6675
vn 0.1868 -0.6477 -0.7386
vn 0.1579 -0.5486 -0.8210
vn 0.1189 -0.4392 -0.8905
vn 0.0701 -0.3206 -0.9446
vn 0.0123 -0.1951 -0.9807
vn 0.9874 -0.0672 0.1430
vn -0.0684 -0.1039 -0.9922
vn -0.0719 0.0251 -0.9971
vn -0.1049 0.0247 0.9942
vn -0.0537 0.4800 0.8756
vn -0.0735 0.8439 0.5314
vn -0.0611 0.9670 -0.2472
vn -0.0931 0.7974 -0.5963
vn -0.0649 0.5457 -0.8355
vn -0.0945 0.4540 -0.8860
vn -0.6701 0.4839 0.5629
vn -0.4303 0.1761 0.8853
vn -0.5833 0.2611 0.7692
vn -0.6561 0.3338 0.6768
vn -0.6803 0.4072 0.6094
vn -0.8243 0.5640 0.0483
vn -0.5298 0.5467 0.6484
vn -0.7813 0.4693 0.4115
vn -0.8284 0.4657 0.3112
vn -0.8496 0.4730 0.2333
vn -0.8545 0.4919 0.1670
vn -0.8451 0.5244 0.1043
vn -0.7384 0.5370 -0.4080
vn -0.6549 0.7525 0.0705
vn -0.6350 0.7716 0.0381
vn -0.5851 0.6744 -0.4504
vn -0.0553 0.0235 -0.9982
vn -0.3181 0.4328 -0.8435
vn -0.1640 -0.0006 -0.9865
vn -1.0000 0.0000 0.0000
usemtl None
s off
f 66/1/1 62/2/1 5/3/1
f 10/4/2 12/5/2 11/6/2
f 10/4/3 13/7/3 12/5/3
f 15/8/4 9/9/4 8/10/4
f 10/4/5 16/11/5 13/7/5
f 10/4/6 18/12/6 16/11/6
f 10/4/7 20/13/7 18/12/7
f 10/4/8 23/14/8 20/13/8
f 24/15/9 27/16/9 25/17/9
f 21/18/10 28/19/10 14/20/10
f 22/21/11 29/22/11 15/8/11
f 24/15/12 30/23/12 27/16/12
f 29/22/13 19/24/13 15/8/13
f 24/15/14 32/25/14 30/23/14
f 31/26/15 38/27/15 24/15/15
f 35/28/16 22/29/16 28/30/16
f 29/31/17 41/32/17 31/33/17
f 41/34/18 38/35/18 31/36/18
f 44/37/19 41/32/19 29/31/19
f 40/38/20 49/39/20 37/40/20
f 49/39/21 43/41/21 37/40/21
f 44/37/22 50/42/22 41/32/22
f 50/43/23 46/44/23 41/34/23
f 56/45/24 43/41/24 49/39/24
f 57/46/25 44/37/25 43/41/25
f 57/46/26 50/42/26 44/37/26
f 53/47/27 59/48/27 49/39/27
f 53/47/28 40/38/28 61/49/28
f 61/49/29 35/28/29 26/50/29
f 26/50/30 35/28/30 28/30/30
f 8/10/31 2/51/31 1/52/31 7/53/31
f 26/54/32 21/18/32 17/55/32
f 59/48/33 67/56/33 55/57/33
f 59/48/34 53/47/34 67/56/34
f 60/58/35 53/47/35 61/49/35
f 33/59/36 63/60/36 32/25/36
f 32/25/37 63/60/37 30/23/37
f 30/23/38 63/60/38 27/16/38
f 27/16/39 63/60/39 25/17/39
f 23/14/40 68/61/40 20/13/40
f 20/13/41 68/61/41 18/12/41
f 18/12/42 68/61/42 16/11/42
f 16/11/43 68/61/43 13/7/43
f 13/7/44 68/61/44 12/5/44
f 12/5/45 68/61/45 11/6/45
f 64/62/46 68/61/46 65/63/46
f 56/45/47 59/48/47 58/64/47
f 57/46/48 56/45/48 58/64/48
f 4/65/49 64/62/49 3/66/49
f 64/62/50 65/63/50 3/66/50
f 66/1/50 3/66/50 65/63/50
f 5/3/51 3/66/51 66/1/51
f 1/52/48 3/66/48 5/3/48
f 66/1/52 64/67/52 5/3/52
f 5/3/52 64/67/52 4/65/52
f 3/68/53 5/69/53 4/70/53
f 1/52/54 6/71/54 7/53/54
f 3/66/55 2/51/55 9/72/55 10/4/55
f 2/51/56 8/10/56 9/9/56
f 4/65/57 3/66/57 10/4/57 11/6/57
f 25/17/58 23/14/58 10/4/58 24/15/58
f 6/71/59 14/20/59 7/53/59
f 7/53/60 15/8/60 8/10/60
f 15/8/61 19/24/61 9/9/61
f 14/20/62 22/21/62 7/53/62
f 7/53/63 22/21/63 15/8/63
f 9/72/64 19/73/64 10/4/64
f 19/73/65 24/15/65 10/4/65
f 33/59/66 32/25/66 24/15/66 38/27/66
f 28/19/67 22/21/67 14/20/67
f 19/73/68 31/26/68 24/15/68
f 29/22/69 31/74/69 19/24/69
f 44/37/70 29/31/70 22/29/70 43/41/70
f 38/35/71 34/75/71 33/76/71
f 38/35/72 36/77/72 34/75/72
f 35/28/73 37/40/73 22/29/73
f 38/35/74 39/78/74 36/77/74
f 38/35/75 42/79/75 39/78/75
f 40/38/76 37/40/76 35/28/76
f 37/40/77 43/41/77 22/29/77
f 45/80/78 38/35/78 46/44/78 47/81/78
f 38/35/79 45/80/79 42/79/79
f 58/64/80 46/44/80 50/43/80 57/46/80
f 41/34/81 46/44/81 38/35/81
f 46/44/82 48/82/82 47/81/82
f 46/44/83 51/83/83 48/82/83
f 46/44/84 52/84/84 51/83/84
f 46/44/85 54/85/85 52/84/85
f 46/44/86 55/57/86 54/85/86
f 56/45/87 57/46/87 43/41/87
f 59/48/88 55/57/88 46/44/88 58/64/88
f 1/52/89 5/3/89 62/2/89 6/71/89
f 49/39/90 59/48/90 56/45/90
f 53/47/91 49/39/91 40/38/91
f 61/49/92 40/38/92 35/28/92
f 26/54/93 28/19/93 21/18/93
f 17/55/94 21/18/94 14/20/94
f 17/55/95 14/20/95 6/71/95
f 62/2/96 17/55/96 6/71/96
f 67/56/97 60/58/97 47/81/97 48/82/97
f 54/85/98 55/57/98 67/56/98
f 52/84/99 54/85/99 67/56/99
f 51/83/100 52/84/100 67/56/100
f 48/82/101 51/83/101 67/56/101
f 60/58/102 63/86/102 33/76/102 34/75/102
f 60/58/103 67/56/103 53/47/103
f 45/80/104 47/81/104 60/58/104
f 42/79/105 45/80/105 60/58/105
f 39/78/106 42/79/106 60/58/106
f 36/77/107 39/78/107 60/58/107
f 34/75/108 36/77/108 60/58/108
f 68/61/109 23/14/109 25/17/109 63/60/109
f 63/86/110 60/58/110 61/49/110
f 63/60/111 61/87/111 26/54/111
f 17/55/112 68/61/112 63/60/112 26/54/112
f 68/61/113 64/62/113 4/65/113 11/6/113
f 68/61/114 17/55/114 62/2/114
f 62/2/115 66/1/115 65/63/115 68/61/115
f 33/88/116 32/89/116 30/90/116 27/91/116 25/92/116 23/93/116 20/94/116 18/95/116 16/96/116 13/97/116 12/98/116 11/99/116 55/100/116 54/101/116 52/102/116 51/103/116 48/104/116 47/105/116 45/106/116 42/107/116 39/108/116 36/109/116 34/110/116
f 2/51/48 3/66/48 1/52/48
